<svg width="100" height="100" viewBox="0 0 100 100" xmlns="http://www.w3.org/2000/svg">
    <defs>
        <linearGradient id="logoGradient" x1="0%" y1="0%" x2="100%" y2="100%">
            <stop offset="0%" style="stop-color:#A855F7;stop-opacity:1" />
            <stop offset="100%" style="stop-color:#EC4899;stop-opacity:1" />
        </linearGradient>
    </defs>
    <path d="M50,5 C25.1,5 5,25.1 5,50 C5,74.9 25.1,95 50,95 C74.9,95 95,74.9 95,50 C95,25.1 74.9,5 50,5 Z M50,87 C29.5,87 13,70.5 13,50 C13,29.5 29.5,13 50,13 C70.5,13 87,29.5 87,50 C87,70.5 70.5,87 50,87 Z" fill="url(#logoGradient)"/>
    <path d="M35,40 C38.3,40 41,37.3 41,34 C41,30.7 38.3,28 35,28 C31.7,28 29,30.7 29,34 C29,37.3 31.7,40 35,40 Z" fill="white"/>
    <path d="M65,40 C68.3,40 71,37.3 71,34 C71,30.7 68.3,28 65,28 C61.7,28 59,30.7 59,34 C59,37.3 61.7,40 65,40 Z" fill="white"/>
    <path d="M30,60 C30,54.5 34.5,50 40,50 L60,50 C65.5,50 70,54.5 70,60 L70,65 C70,70.5 65.5,75 60,75 L40,75 C34.5,75 30,70.5 30,65 L30,60 Z" fill="white" />
    <path d="M35,60 C35,57.2 37.2,55 40,55 L60,55 C62.8,55 65,57.2 65,60 L65,62 C65,64.8 62.8,67 60,67 L40,67 C37.2,67 35,64.8 35,62 L35,60 Z" fill="url(#logoGradient)" />
</svg>
